<svg width="20" height="20" viewBox="0 0 20 20" fill="none" xmlns="http://www.w3.org/2000/svg">
<rect width="20" height="20" rx="4" fill="#1E32E1"/>
<path d="M4.37076 10.8443C3.87641 10.3385 3.87641 9.51858 4.37076 9.01285C4.8651 8.50711 5.6666 8.50711 6.16094 9.01285L9.3636 12.2893C9.85794 12.795 9.85794 13.615 9.3636 14.1207C8.86925 14.6264 8.06776 14.6264 7.57341 14.1207L4.37076 10.8443Z" fill="white"/>
<path d="M9.3636 14.1207C8.86925 14.6264 8.06776 14.6264 7.57341 14.1207C7.07907 13.615 7.07907 12.795 7.57341 12.2893L13.8391 5.8793C14.3334 5.37357 15.1349 5.37357 15.6292 5.8793C16.1236 6.38503 16.1236 7.20499 15.6292 7.71072L9.3636 14.1207Z" fill="white"/>
</svg>
