<svg width="25" height="24" viewBox="0 0 25 24" fill="none" xmlns="http://www.w3.org/2000/svg">
<path d="M9.08588 4H6.50006V2H11.5001C12.0523 2 12.5001 2.44772 12.5001 3V8H10.5001V5.41424L4.20718 11.7071L2.79297 10.2929L9.08588 4Z" fill="#1E32E1"/>
<path fill-rule="evenodd" clip-rule="evenodd" d="M15.5 6C14.9477 6 14.5 6.44772 14.5 7V10H9.5C8.94772 10 8.5 10.4477 8.5 11V14H3.5C2.94772 14 2.5 14.4477 2.5 15V21C2.5 21.5523 2.94772 22 3.5 22H21.5C22.0523 22 22.5 21.5523 22.5 21V7C22.5 6.44772 22.0523 6 21.5 6H15.5ZM14.5 20H10.5V12H14.5V20ZM4.5 16H8.5V20H4.5V16ZM16.5 20H20.5V8H16.5V20Z" fill="#1E32E1"/>
</svg>
