<svg width="25" height="24" viewBox="0 0 25 24" fill="none" xmlns="http://www.w3.org/2000/svg">
<path fill-rule="evenodd" clip-rule="evenodd" d="M3.5 2C2.94772 2 2.5 2.44772 2.5 3V13C2.5 13.5523 2.94772 14 3.5 14H10.5C11.0523 14 11.5 13.5523 11.5 13V3C11.5 2.44772 11.0523 2 10.5 2H3.5ZM4.5 12V4H9.5V12H4.5Z" fill="#1E32E1"/>
<path fill-rule="evenodd" clip-rule="evenodd" d="M14.5 2C13.9477 2 13.5 2.44772 13.5 3V7C13.5 7.55228 13.9477 8 14.5 8H21.5C22.0523 8 22.5 7.55228 22.5 7V3C22.5 2.44772 22.0523 2 21.5 2H14.5ZM15.5 6V4H20.5V6H15.5Z" fill="#1E32E1"/>
<path fill-rule="evenodd" clip-rule="evenodd" d="M13.5 11C13.5 10.4477 13.9477 10 14.5 10H21.5C22.0523 10 22.5 10.4477 22.5 11V21C22.5 21.5523 22.0523 22 21.5 22H14.5C13.9477 22 13.5 21.5523 13.5 21V11ZM20.5 12H15.5V20H20.5V12Z" fill="#1E32E1"/>
<path fill-rule="evenodd" clip-rule="evenodd" d="M3.5 16C2.94772 16 2.5 16.4477 2.5 17V21C2.5 21.5523 2.94772 22 3.5 22H10.5C11.0523 22 11.5 21.5523 11.5 21V17C11.5 16.4477 11.0523 16 10.5 16H3.5ZM4.5 20V18H9.5V20H4.5Z" fill="#1E32E1"/>
</svg>
