<svg width="17" height="16" viewBox="0 0 17 16" fill="none" xmlns="http://www.w3.org/2000/svg">
<path d="M11.8333 8.66667C13.3061 8.66667 14.5 9.86057 14.5 11.3333C14.5 12.8061 13.3061 14 11.8333 14C10.591 14 9.54701 13.1504 9.25081 12.0005L2.5 12V10.6667L9.25064 10.6668C9.54661 9.5166 10.5907 8.66667 11.8333 8.66667ZM11.8333 10C11.097 10 10.5 10.597 10.5 11.3333C10.5 12.0697 11.097 12.6667 11.8333 12.6667C12.5697 12.6667 13.1667 12.0697 13.1667 11.3333C13.1667 10.597 12.5697 10 11.8333 10ZM5.16667 2C6.40928 2 7.45339 2.84993 7.74936 4.00016L14.5 4V5.33333L7.74919 5.33384C7.45299 6.48373 6.40904 7.33333 5.16667 7.33333C3.69391 7.33333 2.5 6.13943 2.5 4.66667C2.5 3.19391 3.69391 2 5.16667 2ZM5.16667 3.33333C4.43029 3.33333 3.83333 3.93029 3.83333 4.66667C3.83333 5.40305 4.43029 6 5.16667 6C5.90305 6 6.5 5.40305 6.5 4.66667C6.5 3.93029 5.90305 3.33333 5.16667 3.33333Z" fill="white"/>
</svg>
