<svg width="25" height="24" viewBox="0 0 25 24" fill="none" xmlns="http://www.w3.org/2000/svg">
<path fill-rule="evenodd" clip-rule="evenodd" d="M15.5 5C15.5 4.44772 15.9477 4 16.5 4H21.5C22.0523 4 22.5 4.44772 22.5 5V10C22.5 10.5523 22.0523 11 21.5 11H16.5C15.9477 11 15.5 10.5523 15.5 10V9.11803L11.5 11.118V12.882L15.5 14.882V14C15.5 13.4477 15.9477 13 16.5 13H21.5C22.0523 13 22.5 13.4477 22.5 14V19C22.5 19.5523 22.0523 20 21.5 20H16.5C15.9477 20 15.5 19.5523 15.5 19V17.118L11.5 15.118V17C11.5 17.5523 11.0523 18 10.5 18H3.5C2.94772 18 2.5 17.5523 2.5 17V7C2.5 6.44772 2.94772 6 3.5 6H10.5C11.0523 6 11.5 6.44772 11.5 7V8.88196L15.5 6.88196V5ZM17.5 6V9H20.5V6H17.5ZM4.5 8V16H9.5V8H4.5ZM17.5 18V15H20.5V18H17.5Z" fill="#1E32E1"/>
</svg>
