<svg width="76" height="27" viewBox="0 0 76 27" fill="none" xmlns="http://www.w3.org/2000/svg">
<path d="M29.0391 22V5.50069H35.8547C37.09 5.50069 38.1561 5.72358 39.0531 6.16936C39.9554 6.60977 40.6509 7.24354 41.1396 8.07065C41.6284 8.89239 41.8728 9.86721 41.8728 10.9951C41.8728 12.1391 41.623 13.1112 41.1235 13.9115C40.624 14.7064 39.9151 15.3133 38.9967 15.7322C38.0782 16.1458 36.9906 16.3525 35.7339 16.3525H31.4237V13.2106H34.9927C35.5942 13.2106 36.0964 13.1327 36.4992 12.9769C36.9074 12.8158 37.2162 12.5741 37.4257 12.2519C37.6351 11.9243 37.7399 11.5053 37.7399 10.9951C37.7399 10.4849 37.6351 10.0632 37.4257 9.73025C37.2162 9.39189 36.9074 9.13946 36.4992 8.97296C36.091 8.80109 35.5888 8.71516 34.9927 8.71516H33.0269V22H29.0391ZM38.328 14.4593L42.4367 22H38.0863L34.0581 14.4593H38.328Z" fill="#1929B9"/>
<path d="M44.0601 22V9.62552H47.9996V22H44.0601ZM46.0338 8.18344C45.4806 8.18344 45.0053 8.00083 44.6079 7.63561C44.2104 7.26502 44.0117 6.81924 44.0117 6.29826C44.0117 5.78266 44.2104 5.34225 44.6079 4.97703C45.0053 4.60644 45.4806 4.42114 46.0338 4.42114C46.5924 4.42114 47.0677 4.60644 47.4598 4.97703C47.8573 5.34225 48.056 5.78266 48.056 6.29826C48.056 6.81924 47.8573 7.26502 47.4598 7.63561C47.0677 8.00083 46.5924 8.18344 46.0338 8.18344Z" fill="#1929B9"/>
<path d="M50.5393 22V19.7523L56.2754 12.7675V12.6869H50.7407V9.62552H60.9723V12.0907L55.6551 18.8581V18.9386H61.1656V22H50.5393Z" fill="#1929B9"/>
<path d="M69.1414 22.2336C67.847 22.2336 66.7298 21.9785 65.7899 21.4683C64.8554 20.9527 64.1357 20.2196 63.6308 19.2689C63.1313 18.3129 62.8816 17.177 62.8816 15.8611C62.8816 14.5828 63.134 13.4657 63.6389 12.5097C64.1438 11.5483 64.8554 10.8017 65.7738 10.27C66.6922 9.73294 67.7745 9.46439 69.0205 9.46439C69.9013 9.46439 70.707 9.60135 71.4374 9.87526C72.1678 10.1492 72.7989 10.5547 73.3306 11.0918C73.8624 11.6289 74.2759 12.2922 74.5713 13.0817C74.8667 13.8658 75.0144 14.7654 75.0144 15.7805V16.7634H64.2592V14.4754H71.3488C71.3434 14.0565 71.2441 13.6832 71.0507 13.3556C70.8573 13.028 70.5915 12.7729 70.2531 12.5902C69.9201 12.4023 69.5361 12.3083 69.1011 12.3083C68.6607 12.3083 68.2659 12.4076 67.9168 12.6064C67.5677 12.7997 67.2911 13.0656 67.087 13.4039C66.8829 13.7369 66.7755 14.1156 66.7647 14.5399V16.8681C66.7647 17.373 66.8641 17.8161 67.0628 18.1974C67.2616 18.5734 67.5435 18.8661 67.9087 19.0756C68.274 19.285 68.709 19.3898 69.2139 19.3898C69.563 19.3898 69.8798 19.3414 70.1645 19.2448C70.4492 19.1481 70.6935 19.0057 70.8976 18.8178C71.1017 18.6298 71.2548 18.3988 71.3568 18.1249L74.9741 18.2297C74.8237 19.0407 74.4934 19.7469 73.9832 20.3485C73.4783 20.9446 72.815 21.4092 71.9933 21.7422C71.1715 22.0698 70.2209 22.2336 69.1414 22.2336Z" fill="#1929B9"/>
<path d="M5.09222 5.446C5.43518 4.22149 6.55134 3.375 7.82296 3.375H21.5529C23.119 3.375 24.3887 4.64464 24.3887 6.21082V20.7892C24.3887 22.3554 23.119 23.625 21.5529 23.625H3.73984C1.86193 23.625 0.502625 21.8327 1.0091 20.0244L5.09222 5.446Z" fill="#1929B9"/>
<path d="M15.4313 6.56055C15.3333 7.28803 14.9976 8.19738 14.424 9.28861C13.8504 10.3658 13.1649 11.4501 12.3675 12.5413C11.584 13.6185 10.8495 14.5069 10.164 15.2064H14.3191V12.2055C14.7528 11.59 15.1934 10.8625 15.6411 10.0231C16.0888 9.18368 16.3826 8.49117 16.5225 7.94556H18.3062V15.2064H20.3208V18.2912H18.3062V21.2501H14.3191V18.2912H7.28906V15.1644C8.04453 14.0732 8.79299 12.7511 9.53447 11.1982C10.2759 9.64535 10.8705 8.09945 11.3182 6.56055H15.4313Z" fill="white"/>
</svg>
