<svg width="26" height="18" viewBox="0 0 26 18" fill="none" xmlns="http://www.w3.org/2000/svg">
<rect width="26" height="18" rx="3" fill="#F3B821"/>
<path d="M9.04368 5.45455V12H7.84837L5.00071 7.88033H4.95277V12H3.56889V5.45455H4.78338L7.60866 9.57102H7.66619V5.45455H9.04368ZM10.0971 12V5.45455H14.5076V6.59553H11.4809V8.15518H14.2806V9.29616H11.4809V10.859H14.5204V12H10.0971ZM16.9912 12L15.1183 5.45455H16.63L17.7135 10.0025H17.7678L18.9631 5.45455H20.2575L21.4496 10.0121H21.5071L22.5906 5.45455H24.1023L22.2294 12H20.8807L19.6343 7.72053H19.5831L18.3399 12H16.9912Z" fill="#14181F"/>
</svg>
