<svg width="12" height="14" viewBox="0 0 12 14" fill="none" xmlns="http://www.w3.org/2000/svg">
<path fill-rule="evenodd" clip-rule="evenodd" d="M6.00065 0.333252C4.1597 0.333252 2.66732 1.82564 2.66732 3.66659C2.66732 5.50753 4.1597 6.99992 6.00065 6.99992C7.8416 6.99992 9.33398 5.50753 9.33398 3.66659C9.33398 1.82564 7.8416 0.333252 6.00065 0.333252ZM4.00065 3.66659C4.00065 2.56202 4.89608 1.66659 6.00065 1.66659C7.10522 1.66659 8.00065 2.56202 8.00065 3.66659C8.00065 4.77115 7.10522 5.66659 6.00065 5.66659C4.89608 5.66659 4.00065 4.77115 4.00065 3.66659Z" fill="black"/>
<path d="M6.00072 7.66659C2.39376 7.66659 0.333984 10.7321 0.333984 13.6666H1.66732C1.66732 11.2677 3.31604 8.99992 6.00072 8.99992C8.68538 8.99992 10.334 11.2677 10.334 13.6666H11.6673C11.6673 10.7321 9.60769 7.66659 6.00072 7.66659Z" fill="black"/>
</svg>
